/* XPM */
static char * night_knight_schriftzug_xpm[] = {
"144 22 3 1",
" 	c #000000",
".	c #FFFF00",
"+	c #FFFFFF",
"                                             +++                                                                                                ",
"                 +++                       .....                                                                                  +++           ",
"                ....   +                   ..                                                              +                    .....           ",
"    .....      ...    ...                 ..                                ++++++   +++                  ...                   ..              ",
"   ......     ..      ...                 ..                              .......   ....                  ...                  ..               ",
"  ...  ...    ..      ..                 ...             ..              +.   ..   ....                   ..                   ..            .. ",
" ..    ...    ..                         ...            ..              ...   .. ...                                          ...           ..  ",
" ..   ....    .       .        ......    ..   ..        ..              ...  .....           .   +.       .          +.....   ..   ..       ..  ",
" ...  ....   ..     ...       ......     .. ....        ..              ...  ++++          +++ ++++    ++++         +++++++   ++ ++++       ++  ",
" +++  +++++  ++    ++++      ++  ++     +++++++      ++++++++           +++  ++++         +++++++++   +++++        ++  ++     ++++++     ++++++ ",
" ++   + +++  ++      ++     ++   ++     +++  ++        ++                    .....          ... ..       +.       ..   ..    ...  ..       ..   ",
"     ..  ..  .      ...     ..  ...     ..   ..        ..                   ++++++         +++  ++      +++       ++  +++    ...  ..       ..   ",
"     ++  +++++      ++     +++  ++      ++  +++       +++                   .. ....        ..   ..      ..       +..  ..     ..  ...      ...   ",
"     .   .....      ..  .   .. ...     ...  ..  .     ...  .                ..  ....       ..   ..      ..  .     .. ...    ...  ..  .    ...  .",
"    ..    ....     ......    .....     ...  .....     ......                .   ....       ..  ... .   +.....      .....    ...  .....    ......",
".....     ....     .....    .. ...     ..   ...      .....                 ..   ....      ...  .....   .....      .. ...    ..   ...     .....  ",
"....      ....     ...     ..  ..      ..   .        ....               ....     ....     ..   ...     ...       +.  ..     ..   .       ....   ",
"           ...           ...   ..     .                                 ...      +...   ..     ..              ...   ..    .                    ",
"            ...   ++    +++    +                                                  ++++++++                    +++    +                          ",
"             .......    ..    ..                                                     ...                      ..    ..                          ",
"                ..     ........                                                                              ........                           ",
"                        ......                                                                                ......                            "};
